<svg xmlns="http://www.w3.org/2000/svg" viewBox="0 0 64 64" width="100%" height="100%" fill="#FFF">
  <!-- Bulb -->
  <path d="M32,4 C41.941,4 50,12.059 50,22 C50,29.003 45.7,35.143 40.174,37.655 L40,47 C40,48.105 39.105,49 38,49 L26,49 C24.895,49 24,48.105 24,47 L23.826,37.655 C18.3,35.143 14,29.003 14,22 C14,12.059 22.059,4 32,4 Z M36,55 L36,58 C36,59.105 35.105,60 34,60 L30,60 C28.895,60 28,59.105 28,58 L28,55 L36,55 Z" />

  <!-- Mask to prevent rays from overlapping the bulb -->
  <mask id="mask">
    <!-- The bulb shape acts as the mask area -->
    <rect x="0" y="0" width="64" height="64" fill="white" />
    <path d="M32,4 C41.941,4 50,12.059 50,22 C50,29.003 45.7,35.143 40.174,37.655 L40,47 C40,48.105 39.105,49 38,49 L26,49 C24.895,49 24,48.105 24,47 L23.826,37.655 C18.3,35.143 14,29.003 14,22 C14,12.059 22.059,4 32,4 Z" fill="black" />
  </mask>

  <!-- Rays -->
  <!-- <g mask="url(#mask)">
    <line x1="32" y1="0" x2="32" y2="8" stroke="#FFF" stroke-width="2"/>
    <line x1="14" y1="10" x2="20" y2="16" stroke="#FFF" stroke-width="2"/>
    <line x1="50" y1="10" x2="44" y2="16" stroke="#FFF" stroke-width="2"/>
    <line x1="4" y1="32" x2="12" y2="32" stroke="#FFF" stroke-width="2"/>
    <line x1="60" y1="32" x2="52" y2="32" stroke="#FFF" stroke-width="2"/>
    <line x1="14" y1="54" x2="20" y2="48" stroke="#FFF" stroke-width="2"/>
    <line x1="50" y1="54" x2="44" y2="48" stroke="#FFF" stroke-width="2"/> -->
  <!-- </g> -->
</svg>